Coordinates
version=1
nRows=5
nColumns=63
inDegrees=yes

Units are S.I. units (second, meters, Newtons, ...)
If the header above contains a line with 'inDegrees', this indicates whether rotational values are in degrees (yes) or radians (no).

endheader
time	pelvis_tilt	pelvis_list	pelvis_rotation	pelvis_tx	pelvis_ty	pelvis_tz	hip_flexion_r	hip_adduction_r	hip_rotation_r	knee_angle_r	knee_angle_r_beta	ankle_angle_r	subtalar_angle_r	mtp_angle_r	hip_flexion_l	hip_adduction_l	hip_rotation_l	knee_angle_l	knee_angle_l_beta	ankle_angle_l	subtalar_angle_l	mtp_angle_l	L5_S1_Flex_Ext	L5_S1_Lat_Bending	L5_S1_axial_rotation	L4_L5_Flex_Ext	L4_L5_Lat_Bending	L4_L5_axial_rotation	L3_L4_Flex_Ext	L3_L4_Lat_Bending	L3_L4_axial_rotation	L2_L3_Flex_Ext	L2_L3_Lat_Bending	L2_L3_axial_rotation	L1_L2_Flex_Ext	L1_L2_Lat_Bending	L1_L2_axial_rotation	L1_T12_Flex_Ext	L1_T12_Lat_Bending	L1_T12_axial_rotation	Abs_r3	Abs_r2	Abs_r1	Abs_t1	Abs_t2	neck_flexion	neck_bending	neck_rotation	arm_flex_r	arm_add_r	arm_rot_r	elbow_flex_r	pro_sup_r	wrist_flex_r	wrist_dev_r	arm_flex_l	arm_add_l	arm_rot_l	elbow_flex_l	pro_sup_l	wrist_flex_l	wrist_dev_l
      2.05000000	      2.50976689	     -3.12514352	     94.73849072	      0.15221683	      0.90027779	      0.43574038	      6.28785683	     -3.89461839	    -26.47196739	     21.17803266	      0.36962640	     35.31067551	     18.43337558	      0.00000000	     10.76039267	     -2.06037304	     -6.10908020	     24.52184307	      0.42798690	     32.96807486	      5.40768962	      0.00000000	      0.20030873	     -0.08213327	      1.45813383	      0.37199335	     -0.10923725	      1.54926719	      0.32908722	     -0.19969884	      1.54926719	      0.22893285	     -0.19969884	      1.27586710	      0.18600669	     -0.16748617	      1.18473374	      0.11445641	     -0.12722444	      1.09360037	      1.43078525	     -0.92910800	      8.10970292	      0.00000000	      0.00000000	     13.05413177	     10.89357239	     11.83670777	     -6.75065330	    -11.32499575	     15.53973707	     36.08508376	     82.37651508	     -1.49764610	     12.89229984	     -1.02821491	    -16.31232585	     -0.36308615	     52.63533591	     84.70053046	     -8.68884461	     13.46988834
      2.06666667	      2.45334548	     -3.05952892	     94.33571546	      0.15247898	      0.90046035	      0.43541642	      6.28753044	     -3.90080563	    -25.89977214	     21.16746846	      0.36944202	     35.39793428	     18.40108832	      0.00000000	     10.72413799	     -2.09599396	     -6.67584019	     24.62843101	      0.42984721	     33.29240446	      5.66883553	      0.00000000	      0.19132465	     -0.08578393	      1.57558736	      0.35530900	     -0.11409262	      1.67406157	      0.31432727	     -0.20857504	      1.67406157	      0.21866494	     -0.20857504	      1.37863894	      0.17766407	     -0.17493058	      1.28016473	      0.10932290	     -0.13287930	      1.18169052	      1.36661283	     -0.97040494	      8.76294422	      0.00000000	      0.00000000	     13.40310340	      9.48309834	      9.37863434	     -6.94159617	    -11.35370442	     15.32374833	     36.19628089	     82.45190876	     -1.60008143	     13.03634748	     -0.44293889	    -16.41757019	     -0.58147442	     52.60119204	     85.34021609	     -7.17399577	     14.40303757
      2.08333333	      2.41893591	     -3.05621492	     94.29407402	      0.15236455	      0.90059306	      0.43532261	      6.30979287	     -3.92643889	    -25.78118251	     21.11621883	      0.36854754	     35.52575160	     18.47274928	      0.00000000	     10.78052914	     -2.02816568	     -6.71368586	     24.59032310	      0.42918210	     33.59782579	      5.67795228	      0.00000000	      0.19015452	     -0.08254370	      1.55960156	      0.35313597	     -0.10978311	      1.65707666	      0.31240487	     -0.20069674	      1.65707666	      0.21732761	     -0.20069674	      1.36465136	      0.17657749	     -0.16832310	      1.26717627	      0.10865429	     -0.12786018	      1.16970117	      1.35825475	     -0.93375079	      8.67403599	      0.00000000	      0.00000000	     13.37089436	      9.41641000	      9.33849559	     -6.93678314	    -11.36762786	     15.34476078	     36.13582577	     82.48912102	     -1.61069781	     13.05230785	     -0.21146170	    -16.55395501	     -0.62899378	     52.60938794	     85.36857860	     -7.12491895	     14.35562397
      2.10000000	      2.33670148	     -2.97059733	     94.06622433	      0.15293590	      0.90091017	      0.43491776	      6.21964857	     -3.89442006	    -25.27146065	     20.96155611	      0.36584817	     35.68458965	     18.44981593	      0.00000000	     10.66179105	     -2.27706084	     -8.21084285	     24.60386469	      0.42941845	     34.25757787	      7.78259998	      0.00000000	      0.19016312	     -0.09121856	      1.55755628	      0.35315193	     -0.12132069	      1.65490355	      0.31241899	     -0.22178881	      1.65490355	      0.21733743	     -0.22178881	      1.36286175	      0.17658547	     -0.18601289	      1.26551448	      0.10865921	     -0.14129755	      1.16816721	      1.35831613	     -1.03188260	      8.66266077	      0.00000000	      0.00000000	     13.25146692	      8.75006726	      8.51872186	     -6.49686417	    -11.57393962	     17.16518917	     35.56678821	     83.02292278	     -2.23133816	     12.74580166	     -0.03213517	    -17.08484782	     -0.20460473	     52.11629068	     85.69382584	     -5.93426915	     12.74126133
      2.11666667	      2.26441452	     -2.89919416	     93.97598616	      0.15304361	      0.90105426	      0.43475400	      6.17582278	     -3.92990586	    -24.96326458	     20.91576869	      0.36504903	     35.86225679	     18.46652949	      0.00000000	     10.52680762	     -2.23935418	     -8.46630307	     24.47936772	      0.42724557	     34.47166923	      8.14013724	      0.00000000	      0.18718895	     -0.09156577	      1.48287441	      0.34762859	     -0.12178247	      1.57555406	      0.30753272	     -0.22263301	      1.57555406	      0.21393825	     -0.22263301	      1.29751511	      0.17382366	     -0.18672091	      1.20483546	      0.10695976	     -0.14183537	      1.11215581	      1.33707193	     -1.03581028	      8.24730261	      0.00000000	      0.00000000	     13.04910327	      8.45522150	      8.86774892	     -6.04410368	    -11.69715846	     18.32212641	     35.08681799	     83.40582159	     -2.11414399	     12.78020417	     -0.20730708	    -17.18497141	     -0.90549715	     51.99940648	     86.03852467	     -4.76352567	     12.68514648
